<svg id="Layer_1" enable-background="new 0 0 509.948 509.948" height="32" viewBox="0 0 509.948 509.948" width="25" xmlns="http://www.w3.org/2000/svg"><g><path d="m494.207 254.974c33.362-32.239 10.194-90.093-36.707-90h-142.5v-71.5c0-43.285-35.215-78.5-78.5-78.5h-24.51l-14.303 100.118c-3.185 22.296-15.377 32.215-32.688 60.341v-25.459h-164.999v345h165v-37.252l86.921 37.252h205.579c46.925.086 70.055-57.777 36.707-90 20.905-19.68 20.899-55.327 0-75 20.905-19.68 20.899-55.327 0-75zm-359.207 210h-105v-285h105zm322.5-195c29.857 1.24 29.834 43.771 0 45h-97.5v30h97.5c29.857 1.24 29.834 43.771 0 45h-97.5v30h97.5c29.857 1.24 29.834 43.771 0 45h-199.421l-93.079-39.891v-195.568c39.415-62.868 57.549-76.32 62.387-110.181l10.619-74.337c26.049.799 46.994 22.239 46.994 48.477v101.5h172.5c29.857 1.24 29.834 43.771 0 45h-97.5v30z"/><path d="m75 404.974h30v30h-30z"/></g></svg>